# xmcd
#
# Track frame offsets:
#	150
#	18269
#	29464
#	39822
#	53325
#	66819
#	83585
#	98964
#	110583
#	122257
#	138459
#	151678
#
# Disc length: 2215 seconds
#
# Revision: 0
# Processed by: cddbd v1.5.1PL0 Copyright (c) Steve Scherf et al.
# Submitted via: dBpowerAMP V4.0
#
DISCID=8308a50c
DTITLE=Sergio Mendivil - Amiga Mia
DYEAR=2005
DGENRE=Banda
TTITLE0=Amiga Mia
TTITLE1=Dejame
TTITLE2=El Indio
TTITLE3=La Pura Vida
TTITLE4=El Coyote
TTITLE5=Me Voy
TTITLE6=Dejame Vivir
TTITLE7=Las Isabeles
TTITLE8=La Viudita
TTITLE9=Rayando El Sol
TTITLE10=Me Volvi A Emborrachar
TTITLE11=Nadie Es Eterno
EXTD=Sergio Mendivil Con Banda
EXTT0=
EXTT1=
EXTT2=
EXTT3=
EXTT4=
EXTT5=
EXTT6=
EXTT7=
EXTT8=
EXTT9=
EXTT10=
EXTT11=
PLAYORDER=
